<mxfile host="app.diagrams.net" agent="Mozilla/5.0 (Windows NT 10.0; Win64; x64; rv:130.0) Gecko/20100101 Firefox/130.0" version="24.7.16">
  <diagram name="PÃ¡gina-1" id="U_HbYeaZp5hXoVOZK7bt">
    <mxGraphModel dx="1134" dy="623" grid="1" gridSize="10" guides="1" tooltips="1" connect="1" arrows="1" fold="1" page="1" pageScale="1" pageWidth="1654" pageHeight="1169" math="0" shadow="0">
      <root>
        <mxCell id="0" />
        <mxCell id="1" parent="0" />
        <mxCell id="YM_RTdfrD7nNMvNDnSvT-1" value="Coberfuzi" style="html=1;whiteSpace=wrap;" vertex="1" parent="1">
          <mxGeometry x="800" y="70" width="110" height="50" as="geometry" />
        </mxCell>
        <mxCell id="YM_RTdfrD7nNMvNDnSvT-9" style="edgeStyle=orthogonalEdgeStyle;rounded=0;orthogonalLoop=1;jettySize=auto;html=1;exitX=0.5;exitY=1;exitDx=0;exitDy=0;entryX=0.5;entryY=0;entryDx=0;entryDy=0;" edge="1" parent="1" source="YM_RTdfrD7nNMvNDnSvT-2" target="YM_RTdfrD7nNMvNDnSvT-3">
          <mxGeometry relative="1" as="geometry" />
        </mxCell>
        <mxCell id="YM_RTdfrD7nNMvNDnSvT-10" style="edgeStyle=orthogonalEdgeStyle;rounded=0;orthogonalLoop=1;jettySize=auto;html=1;exitX=0.5;exitY=1;exitDx=0;exitDy=0;entryX=0.5;entryY=0;entryDx=0;entryDy=0;" edge="1" parent="1" source="YM_RTdfrD7nNMvNDnSvT-2" target="YM_RTdfrD7nNMvNDnSvT-6">
          <mxGeometry relative="1" as="geometry" />
        </mxCell>
        <mxCell id="YM_RTdfrD7nNMvNDnSvT-2" value="&lt;div&gt;Entity&lt;/div&gt;" style="html=1;whiteSpace=wrap;" vertex="1" parent="1">
          <mxGeometry x="430" y="220" width="110" height="50" as="geometry" />
        </mxCell>
        <mxCell id="YM_RTdfrD7nNMvNDnSvT-3" value="&lt;div&gt;Supplier&lt;/div&gt;" style="html=1;whiteSpace=wrap;" vertex="1" parent="1">
          <mxGeometry x="500" y="320" width="110" height="50" as="geometry" />
        </mxCell>
        <mxCell id="YM_RTdfrD7nNMvNDnSvT-5" value="" style="ellipse;whiteSpace=wrap;html=1;align=center;aspect=fixed;fillColor=none;strokeColor=none;resizable=0;perimeter=centerPerimeter;rotatable=0;allowArrows=0;points=[];outlineConnect=1;" vertex="1" parent="1">
          <mxGeometry x="390" y="410" width="10" height="10" as="geometry" />
        </mxCell>
        <mxCell id="YM_RTdfrD7nNMvNDnSvT-6" value="Client" style="html=1;whiteSpace=wrap;" vertex="1" parent="1">
          <mxGeometry x="350" y="320" width="110" height="50" as="geometry" />
        </mxCell>
        <mxCell id="YM_RTdfrD7nNMvNDnSvT-12" value="Employee" style="html=1;whiteSpace=wrap;" vertex="1" parent="1">
          <mxGeometry x="690" y="320" width="110" height="50" as="geometry" />
        </mxCell>
      </root>
    </mxGraphModel>
  </diagram>
</mxfile>
